<?xml version="1.0" encoding="UTF-8"?>
<!DOCTYPE svg PUBLIC "-//W3C//DTD SVG 1.1//EN" "http://www.w3.org/Graphics/SVG/1.1/DTD/svg11.dtd">
<svg version="1.2" width="249.45mm" height="70.56mm" viewBox="0 0 24945 7056" preserveAspectRatio="xMidYMid" fill-rule="evenodd" stroke-width="28.222" stroke-linejoin="round" xmlns="http://www.w3.org/2000/svg" xmlns:ooo="http://xml.openoffice.org/svg/export" xmlns:xlink="http://www.w3.org/1999/xlink" xmlns:presentation="http://sun.com/xmlns/staroffice/presentation" xmlns:smil="http://www.w3.org/2001/SMIL20/" xmlns:anim="urn:oasis:names:tc:opendocument:xmlns:animation:1.0" xml:space="preserve">
 <defs class="ClipPathGroup">
  <clipPath id="presentation_clip_path" clipPathUnits="userSpaceOnUse">
   <rect x="0" y="0" width="24945" height="7056"/>
  </clipPath>
  <clipPath id="presentation_clip_path_shrink" clipPathUnits="userSpaceOnUse">
   <rect x="24" y="7" width="24896" height="7042"/>
  </clipPath>
 </defs>
 <defs class="TextShapeIndex">
  <g ooo:slide="id1" ooo:id-list="id3 id4 id5 id6 id7 id8 id9 id10 id11"/>
 </defs>
 <defs class="EmbeddedBulletChars">
  <g id="bullet-char-template(57356)" transform="scale(0.00048828125,-0.00048828125)">
   <path d="M 580,1141 L 1163,571 580,0 -4,571 580,1141 Z"/>
  </g>
  <g id="bullet-char-template(57354)" transform="scale(0.00048828125,-0.00048828125)">
   <path d="M 8,1128 L 1137,1128 1137,0 8,0 8,1128 Z"/>
  </g>
  <g id="bullet-char-template(10146)" transform="scale(0.00048828125,-0.00048828125)">
   <path d="M 174,0 L 602,739 174,1481 1456,739 174,0 Z M 1358,739 L 309,1346 659,739 1358,739 Z"/>
  </g>
  <g id="bullet-char-template(10132)" transform="scale(0.00048828125,-0.00048828125)">
   <path d="M 2015,739 L 1276,0 717,0 1260,543 174,543 174,936 1260,936 717,1481 1274,1481 2015,739 Z"/>
  </g>
  <g id="bullet-char-template(10007)" transform="scale(0.00048828125,-0.00048828125)">
   <path d="M 0,-2 C -7,14 -16,27 -25,37 L 356,567 C 262,823 215,952 215,954 215,979 228,992 255,992 264,992 276,990 289,987 310,991 331,999 354,1012 L 381,999 492,748 772,1049 836,1024 860,1049 C 881,1039 901,1025 922,1006 886,937 835,863 770,784 769,783 710,716 594,584 L 774,223 C 774,196 753,168 711,139 L 727,119 C 717,90 699,76 672,76 641,76 570,178 457,381 L 164,-76 C 142,-110 111,-127 72,-127 30,-127 9,-110 8,-76 1,-67 -2,-52 -2,-32 -2,-23 -1,-13 0,-2 Z"/>
  </g>
  <g id="bullet-char-template(10004)" transform="scale(0.00048828125,-0.00048828125)">
   <path d="M 285,-33 C 182,-33 111,30 74,156 52,228 41,333 41,471 41,549 55,616 82,672 116,743 169,778 240,778 293,778 328,747 346,684 L 369,508 C 377,444 397,411 428,410 L 1163,1116 C 1174,1127 1196,1133 1229,1133 1271,1133 1292,1118 1292,1087 L 1292,965 C 1292,929 1282,901 1262,881 L 442,47 C 390,-6 338,-33 285,-33 Z"/>
  </g>
  <g id="bullet-char-template(9679)" transform="scale(0.00048828125,-0.00048828125)">
   <path d="M 813,0 C 632,0 489,54 383,161 276,268 223,411 223,592 223,773 276,916 383,1023 489,1130 632,1184 813,1184 992,1184 1136,1130 1245,1023 1353,916 1407,772 1407,592 1407,412 1353,268 1245,161 1136,54 992,0 813,0 Z"/>
  </g>
  <g id="bullet-char-template(8226)" transform="scale(0.00048828125,-0.00048828125)">
   <path d="M 346,457 C 273,457 209,483 155,535 101,586 74,649 74,723 74,796 101,859 155,911 209,963 273,989 346,989 419,989 480,963 531,910 582,859 608,796 608,723 608,648 583,586 532,535 482,483 420,457 346,457 Z"/>
  </g>
  <g id="bullet-char-template(8211)" transform="scale(0.00048828125,-0.00048828125)">
   <path d="M -4,459 L 1135,459 1135,606 -4,606 -4,459 Z"/>
  </g>
  <g id="bullet-char-template(61548)" transform="scale(0.00048828125,-0.00048828125)">
   <path d="M 173,740 C 173,903 231,1043 346,1159 462,1274 601,1332 765,1332 928,1332 1067,1274 1183,1159 1299,1043 1357,903 1357,740 1357,577 1299,437 1183,322 1067,206 928,148 765,148 601,148 462,206 346,322 231,437 173,577 173,740 Z"/>
  </g>
 </defs>
 <defs class="TextEmbeddedBitmaps"/>
 <g>
  <g id="id2" class="Master_Slide">
   <g id="bg-id2" class="Background"/>
   <g id="bo-id2" class="BackgroundObjects"/>
  </g>
 </g>
 <g class="SlideGroup">
  <g>
   <g id="container-id1">
    <g id="id1" class="Slide" clip-path="url(#presentation_clip_path)">
     <g class="Page">
      <g class="com.sun.star.drawing.PolyPolygonShape">
       <g id="id3">
        <rect class="BoundingBox" stroke="none" fill="none" x="0" y="0" width="6112" height="7058"/>
        <path fill="rgb(97,218,251)" stroke="none" d="M 0,5292 L 0,1764 3056,0 6111,1764 6111,5292 3056,7057 0,5292 Z"/>
       </g>
      </g>
      <g class="com.sun.star.drawing.PolyPolygonShape">
       <g id="id4">
        <rect class="BoundingBox" stroke="none" fill="none" x="-35" y="-31" width="3110" height="3592"/>
        <path fill="rgb(0,0,0)" fill-opacity="0.039" stroke="rgb(255,255,255)" stroke-opacity="0.039" d="M 0,1764 L 3056,3529 3056,0 0,1764 Z"/>
        <defs>
         <mask id="mask1">
          <g>
           <defs>
            <linearGradient id="gradient1" x1="1519" y1="-30" x2="1519" y2="3559" gradientUnits="userSpaceOnUse">
             <stop offset="0.5" style="stop-color:rgb(245,245,245)"/>
             <stop offset="0.5" style="stop-color:rgb(245,245,245)"/>
             <stop offset="1" style="stop-color:rgb(245,245,245)"/>
             <stop offset="1" style="stop-color:rgb(245,245,245)"/>
            </linearGradient>
           </defs>
           <path style="fill:url(#gradient1)" d="M -35,-30 L 3074,-30 3074,3559 -35,3559 -35,-30 Z"/>
          </g>
         </mask>
        </defs>
        <g style="mask:url(#mask1)">
         <path fill="none" stroke="rgb(255,255,255)" stroke-width="35" stroke-linejoin="miter" d="M 0,1764 L 3056,3529 3056,0 0,1764 Z"/>
        </g>
       </g>
      </g>
      <g class="com.sun.star.drawing.PolyPolygonShape">
       <g id="id5">
        <rect class="BoundingBox" stroke="none" fill="none" x="-35" y="3497" width="3110" height="3592"/>
        <path fill="rgb(0,0,0)" fill-opacity="0.039" stroke="rgb(255,255,255)" stroke-opacity="0.039" d="M 0,5292 L 3056,7057 3056,3528 0,5292 Z"/>
        <defs>
         <mask id="mask2">
          <g>
           <defs>
            <linearGradient id="gradient2" x1="1519" y1="3498" x2="1519" y2="7087" gradientUnits="userSpaceOnUse">
             <stop offset="0.5" style="stop-color:rgb(245,245,245)"/>
             <stop offset="0.5" style="stop-color:rgb(245,245,245)"/>
             <stop offset="1" style="stop-color:rgb(245,245,245)"/>
             <stop offset="1" style="stop-color:rgb(245,245,245)"/>
            </linearGradient>
           </defs>
           <path style="fill:url(#gradient2)" d="M -35,3498 L 3074,3498 3074,7087 -35,7087 -35,3498 Z"/>
          </g>
         </mask>
        </defs>
        <g style="mask:url(#mask2)">
         <path fill="none" stroke="rgb(255,255,255)" stroke-width="35" stroke-linejoin="miter" d="M 0,5292 L 3056,7057 3056,3528 0,5292 Z"/>
        </g>
       </g>
      </g>
      <g class="com.sun.star.drawing.PolyPolygonShape">
       <g id="id6">
        <rect class="BoundingBox" stroke="none" fill="none" x="3020" y="1733" width="3110" height="3592"/>
        <path fill="rgb(0,0,0)" fill-opacity="0.078" stroke="rgb(255,255,255)" stroke-opacity="0.078" d="M 3055,3528 L 6111,5293 6111,1764 3055,3528 Z"/>
        <defs>
         <mask id="mask3">
          <g>
           <defs>
            <linearGradient id="gradient3" x1="4574" y1="1734" x2="4574" y2="5323" gradientUnits="userSpaceOnUse">
             <stop offset="0.5" style="stop-color:rgb(235,235,235)"/>
             <stop offset="0.5" style="stop-color:rgb(235,235,235)"/>
             <stop offset="1" style="stop-color:rgb(235,235,235)"/>
             <stop offset="1" style="stop-color:rgb(235,235,235)"/>
            </linearGradient>
           </defs>
           <path style="fill:url(#gradient3)" d="M 3020,1734 L 6129,1734 6129,5323 3020,5323 3020,1734 Z"/>
          </g>
         </mask>
        </defs>
        <g style="mask:url(#mask3)">
         <path fill="none" stroke="rgb(255,255,255)" stroke-width="35" stroke-linejoin="miter" d="M 3055,3528 L 6111,5293 6111,1764 3055,3528 Z"/>
        </g>
       </g>
      </g>
      <g class="com.sun.star.drawing.PolyPolygonShape">
       <g id="id7">
        <rect class="BoundingBox" stroke="none" fill="none" x="0" y="1764" width="3057" height="3531"/>
       </g>
      </g>
      <g class="com.sun.star.drawing.PolyPolygonShape">
       <g id="id8">
        <rect class="BoundingBox" stroke="none" fill="none" x="3037" y="3497" width="3110" height="3592"/>
        <path fill="rgb(114,159,207)" fill-opacity="0.078" stroke="rgb(255,255,255)" stroke-opacity="0.078" d="M 6111,5292 L 3055,3528 3055,7057 6111,5292 Z"/>
        <defs>
         <mask id="mask4">
          <g>
           <defs>
            <linearGradient id="gradient4" x1="4592" y1="3498" x2="4592" y2="7087" gradientUnits="userSpaceOnUse">
             <stop offset="0.5" style="stop-color:rgb(235,235,235)"/>
             <stop offset="0.5" style="stop-color:rgb(235,235,235)"/>
             <stop offset="1" style="stop-color:rgb(235,235,235)"/>
             <stop offset="1" style="stop-color:rgb(235,235,235)"/>
            </linearGradient>
           </defs>
           <path style="fill:url(#gradient4)" d="M 3038,3498 L 6146,3498 6146,7087 3038,7087 3038,3498 Z"/>
          </g>
         </mask>
        </defs>
        <g style="mask:url(#mask4)">
         <path fill="none" stroke="rgb(255,255,255)" stroke-width="35" stroke-linejoin="miter" d="M 6111,5292 L 3055,3528 3055,7057 6111,5292 Z"/>
        </g>
       </g>
      </g>
      <g class="com.sun.star.drawing.PolyPolygonShape">
       <g id="id9">
        <rect class="BoundingBox" stroke="none" fill="none" x="3037" y="-31" width="3110" height="3592"/>
        <path fill="rgb(0,0,0)" fill-opacity="0.078" stroke="rgb(255,255,255)" stroke-opacity="0.078" d="M 6111,1764 L 3055,0 3055,3529 6111,1764 Z"/>
        <defs>
         <mask id="mask5">
          <g>
           <defs>
            <linearGradient id="gradient5" x1="4592" y1="-30" x2="4592" y2="3559" gradientUnits="userSpaceOnUse">
             <stop offset="0.5" style="stop-color:rgb(235,235,235)"/>
             <stop offset="0.5" style="stop-color:rgb(235,235,235)"/>
             <stop offset="1" style="stop-color:rgb(235,235,235)"/>
             <stop offset="1" style="stop-color:rgb(235,235,235)"/>
            </linearGradient>
           </defs>
           <path style="fill:url(#gradient5)" d="M 3038,-30 L 6146,-30 6146,3559 3038,3559 3038,-30 Z"/>
          </g>
         </mask>
        </defs>
        <g style="mask:url(#mask5)">
         <path fill="none" stroke="rgb(255,255,255)" stroke-width="35" stroke-linejoin="miter" d="M 6111,1764 L 3055,0 3055,3529 6111,1764 Z"/>
        </g>
       </g>
      </g>
      <g class="com.sun.star.drawing.ClosedBezierShape">
       <g id="id10">
        <rect class="BoundingBox" stroke="none" fill="none" x="11965" y="1841" width="2897" height="3523"/>
        <path fill="rgb(97,218,251)" fill-opacity="0.078" stroke="rgb(255,255,255)" stroke-opacity="0.078" d="M 13413,4788 C 13536,4788 13646,4767 13745,4724 13843,4682 13925,4626 13992,4551 14059,4477 14112,4386 14147,4280 14182,4174 14200,4054 14200,3923 L 14200,1859 14843,1859 14843,3923 C 14843,4128 14811,4319 14744,4491 14677,4664 14581,4816 14458,4943 14334,5070 14182,5169 14006,5240 13829,5310 13632,5345 13409,5345 13187,5345 12989,5310 12813,5240 12636,5169 12488,5070 12364,4943 12241,4816 12145,4668 12082,4491 12015,4319 11983,4128 11983,3923 L 11983,1859 12626,1859 12626,3920 C 12626,4050 12643,4170 12678,4276 12714,4382 12767,4474 12834,4548 12901,4622 12982,4682 13081,4724 13176,4767 13289,4788 13413,4788 Z"/>
        <defs>
         <mask id="mask6">
          <g>
           <defs>
            <linearGradient id="gradient6" x1="13413" y1="1841" x2="13413" y2="5363" gradientUnits="userSpaceOnUse">
             <stop offset="0.5" style="stop-color:rgb(235,235,235)"/>
             <stop offset="0.5" style="stop-color:rgb(235,235,235)"/>
             <stop offset="1" style="stop-color:rgb(235,235,235)"/>
             <stop offset="1" style="stop-color:rgb(235,235,235)"/>
            </linearGradient>
           </defs>
           <path style="fill:url(#gradient6)" d="M 11966,1841 L 14861,1841 14861,5363 11966,5363 11966,1841 Z"/>
          </g>
         </mask>
        </defs>
        <g style="mask:url(#mask6)">
         <path fill="none" stroke="rgb(255,255,255)" stroke-width="35" stroke-linejoin="miter" d="M 13413,4788 C 13536,4788 13646,4767 13745,4724 13843,4682 13925,4626 13992,4551 14059,4477 14112,4386 14147,4280 14182,4174 14200,4054 14200,3923 L 14200,1859 14843,1859 14843,3923 C 14843,4128 14811,4319 14744,4491 14677,4664 14581,4816 14458,4943 14334,5070 14182,5169 14006,5240 13829,5310 13632,5345 13409,5345 13187,5345 12989,5310 12813,5240 12636,5169 12488,5070 12364,4943 12241,4816 12145,4668 12082,4491 12015,4319 11983,4128 11983,3923 L 11983,1859 12626,1859 12626,3920 C 12626,4050 12643,4170 12678,4276 12714,4382 12767,4474 12834,4548 12901,4622 12982,4682 13081,4724 13176,4767 13289,4788 13413,4788 Z"/>
        </g>
       </g>
      </g>
      <g class="com.sun.star.drawing.PolyPolygonShape">
       <g id="id11">
        <rect class="BoundingBox" stroke="none" fill="none" x="15553" y="1841" width="680" height="3481"/>
        <path fill="rgb(97,218,251)" fill-opacity="0.078" stroke="rgb(255,255,255)" stroke-opacity="0.078" d="M 16214,5303 L 15571,5303 15571,1859 16214,1859 16214,5303 Z"/>
        <defs>
         <mask id="mask7">
          <g>
           <defs>
            <linearGradient id="gradient7" x1="15893" y1="1842" x2="15893" y2="5321" gradientUnits="userSpaceOnUse">
             <stop offset="0.5" style="stop-color:rgb(235,235,235)"/>
             <stop offset="0.5" style="stop-color:rgb(235,235,235)"/>
             <stop offset="1" style="stop-color:rgb(235,235,235)"/>
             <stop offset="1" style="stop-color:rgb(235,235,235)"/>
            </linearGradient>
           </defs>
           <path style="fill:url(#gradient7)" d="M 15554,1842 L 16232,1842 16232,5321 15554,5321 15554,1842 Z"/>
          </g>
         </mask>
        </defs>
        <g style="mask:url(#mask7)">
         <path fill="none" stroke="rgb(255,255,255)" stroke-width="35" stroke-linejoin="miter" d="M 16214,5303 L 15571,5303 15571,1859 16214,1859 16214,5303 Z"/>
        </g>
       </g>
      </g>
     </g>
    </g>
   </g>
  </g>
 </g>
</svg>